# xmcd
#
# Track frame offsets:
#	150
#	13467
#	24995
#	37888
#	48103
#	59219
#	72210
#	86505
#	97384
#	110003
#	125320
#	137880
#	147516
#	158003
#	169675
#	178086
#	190145
#	201838
#	216410
#	228274
#	239554
#	251499
#	264070
#	275525
#
# Disc length: 3821 seconds
#
# Revision: 1
# Processed by: cddbd v1.5.1PL0 Copyright (c) Steve Scherf et al.
# Submitted via: EasyCDDAExtractor 7.0.6.1
#
DISCID=650eeb18
DTITLE=Rick And Thel Carey
DYEAR=1900
DGENRE=Country
TTITLE0=She Was Happy Till She Met You
TTITLE1=I'll Never Be Fooled Again
TTITLE2=Following The Light
TTITLE3=Your Kind of Love
TTITLE4=Looking Back To See
TTITLE5=It's You With A Broken Heart
TTITLE6=The Highway Hobo
TTITLE7=I Wasn't There
TTITLE8=When Jimmie Rodgers Said Goodbye
TTITLE9=The Life Of Hank Williams
TTITLE10=You And me
TTITLE11=No One But You
TTITLE12=Sunshine
TTITLE13=One More Ride
TTITLE14=Let's Kiss And Try Again
TTITLE15=Rusty Goes Home
TTITLE16=I've Known You From Somewhere
TTITLE17=You Can Say That Again
TTITLE18=Standing At The End of The World
TTITLE19=Don't Laugh
TTITLE20=Don't Leave Your Mother Som
TTITLE21=The Night I Stole Old Sammy Morgan's Gin
TTITLE22=Somebody's Back In Town
TTITLE23=Heaven
EXTD=
EXTT0=
EXTT1=
EXTT2=
EXTT3=
EXTT4=
EXTT5=
EXTT6=
EXTT7=
EXTT8=
EXTT9=
EXTT10=
EXTT11=
EXTT12=
EXTT13=
EXTT14=
EXTT15=
EXTT16=
EXTT17=
EXTT18=
EXTT19=
EXTT20=
EXTT21=
EXTT22=
EXTT23=
PLAYORDER=
